<svg xmlns="http://www.w3.org/2000/svg" viewBox="0 0 468.28 580.45"><title>logo1</title><g id="Layer_2" data-name="Layer 2"><g id="Layer_1-2" data-name="Layer 1"><g id="Layer_1-2-2" data-name="Layer 1-2"><path d="M384.36,196.75a8.19,8.19,0,0,1,.73.92A6.41,6.41,0,0,0,384.36,196.75Zm1.37,2a6.71,6.71,0,0,0-.64-1.1,9.55,9.55,0,0,1,.58,1,5.33,5.33,0,0,1,0,5.88,10.75,10.75,0,0,1-2.49,3.12c-2.13,1.54-2.47,3.47-2.38,5.92.21,6.26.21,12.53.21,18.8a3.5,3.5,0,0,0,.81,2.49,3.65,3.65,0,0,1-.75-2.43c0-6.27,0-12.54-.21-18.8-.09-2.45.25-4.38,2.38-5.92a10.75,10.75,0,0,0,2.49-3.12A5.33,5.33,0,0,0,385.73,198.77Zm-16.61,182.5v.06h13.45v-.05Zm4.4-265.75a2.54,2.54,0,0,1,0,.87c-.26,1.3-.68,2.56-1.13,4.15l-1,.12v.08l1-.12c.45-1.59.87-2.85,1.13-4.15A2.17,2.17,0,0,0,373.52,115.52Zm-1.42,7.4c-1,0-1.48.25-1.58,1.25v0c.1-1,.61-1.26,1.58-1.25a1.49,1.49,0,0,1,1.17.4A1.33,1.33,0,0,0,372.1,122.92Zm-.86-18a4.58,4.58,0,0,1-.2-.46,1.76,1.76,0,0,0,.22.54,2.12,2.12,0,0,1,.11.21A1.51,1.51,0,0,0,371.24,104.93Zm-.37,5.68a1.46,1.46,0,0,1-.07-.19,1.43,1.43,0,0,0,.09.27,3.32,3.32,0,0,1,.34.68A3.11,3.11,0,0,0,370.87,110.61Zm-9.77,64.6h0c.11-.62.22-1.23.32-1.84Zm-109.36,206c0-.36.11-.67.11-1A6.22,6.22,0,0,0,251.74,381.16ZM235,176V172.2C235,173.37,234.92,174.66,235,176ZM109.25,197.68c-1-1.33-2.33-2.41-3.39-3.7a4,4,0,0,1-.63-.9,4,4,0,0,0,.66,1c1.06,1.29,2.39,2.37,3.39,3.7A8.44,8.44,0,0,1,110.5,200,7.42,7.42,0,0,0,109.25,197.68ZM96.47,100.8V97.16C96.47,98.37,96.45,99.58,96.47,100.8Zm-.14-3.65h0Z" style="fill:#12a558"/><path d="M109.25,197.68c-1-1.33-2.33-2.41-3.39-3.7a4,4,0,0,1-.63-.9,4,4,0,0,0,.66,1c1.06,1.29,2.39,2.37,3.39,3.7A8.44,8.44,0,0,1,110.5,200,7.42,7.42,0,0,0,109.25,197.68Zm-19.42,3.73a2,2,0,0,1,0-.35,1.85,1.85,0,0,0,0,.41,1.48,1.48,0,0,0,0,.21.28.28,0,0,0,0,.13A1.75,1.75,0,0,1,89.83,201.41Z" style="fill:#12a558"/><path d="M365.93,286.2a1.81,1.81,0,0,0,0,1A2.91,2.91,0,0,1,365.93,286.2Zm.07-79a1.5,1.5,0,0,1,.75-1.08A1.31,1.31,0,0,0,366,207.21Zm1.66,30.38a1.07,1.07,0,0,1,.37.21A1.25,1.25,0,0,0,367.66,237.59Zm.47-31.47a1.48,1.48,0,0,1,.76,1.39C368.86,206.86,368.7,206.34,368.13,206.12Zm1,175.15v.06h13.45v-.05Zm15.24-184.52a8.19,8.19,0,0,1,.73.92A6.41,6.41,0,0,0,384.36,196.75Zm1.37,2a6.71,6.71,0,0,0-.64-1.1,9.55,9.55,0,0,1,.58,1,5.33,5.33,0,0,1,0,5.88,10.75,10.75,0,0,1-2.49,3.12c-2.13,1.54-2.47,3.47-2.38,5.92.21,6.26.21,12.53.21,18.8a3.5,3.5,0,0,0,.81,2.49,3.65,3.65,0,0,1-.75-2.43c0-6.27,0-12.54-.21-18.8-.09-2.45.25-4.38,2.38-5.92a10.75,10.75,0,0,0,2.49-3.12A5.33,5.33,0,0,0,385.73,198.77Z" style="fill:#12a558"/><path d="M224.87,208.82a1.41,1.41,0,0,1,.47.86,2.13,2.13,0,0,1-.76,1.38,2,2,0,0,0,.81-1.4A1.61,1.61,0,0,0,224.87,208.82Zm-2.92-.18c.57-.18,1.19-.28,2.16-.52v0A19.19,19.19,0,0,0,222,208.64Zm-13.16,13.84a2.19,2.19,0,0,1-1.3,1,2.06,2.06,0,0,0,1.35-1,32.07,32.07,0,0,1,4.07-4.92A30.68,30.68,0,0,0,208.79,222.48Zm-7.12,12.74a.83.83,0,0,1-.08.12,1.07,1.07,0,0,0,.14-.16l1-1.85Z" style="fill:#12a558"/><path d="M118.67,307.45l.12.08.07,0A1.18,1.18,0,0,1,118.67,307.45Zm1.52,0,.09-.06.16-.14Z" style="fill:#12a558"/><path d="M251.85,380.21c0,.28-.07.59-.11,1A6.22,6.22,0,0,1,251.85,380.21Z" style="fill:#12a558"/><path d="M361.43,173.37c-.1.61-.21,1.22-.32,1.84h0Z" style="fill:#12a558"/><path d="M373.27,123.36a1.49,1.49,0,0,0-1.17-.4c-1,0-1.48.27-1.58,1.25v0c.1-1,.62-1.25,1.58-1.25A1.33,1.33,0,0,1,373.27,123.36Z" style="fill:#12a558"/><path d="M275.28,269.71a3.68,3.68,0,0,0-.58.44A2.94,2.94,0,0,1,275.28,269.71Z" style="fill:#12a558"/><path d="M367.66,237.59a1.07,1.07,0,0,1,.37.21A1.25,1.25,0,0,0,367.66,237.59Z" style="fill:#12a558"/><path d="M367.66,237.59a1.07,1.07,0,0,1,.37.21A1.25,1.25,0,0,0,367.66,237.59Z" style="fill:#12a558"/><path d="M367.66,237.59a1.07,1.07,0,0,1,.37.21A1.25,1.25,0,0,0,367.66,237.59Z" style="fill:#12a558"/><path d="M367.66,237.59a1.07,1.07,0,0,1,.37.21A1.25,1.25,0,0,0,367.66,237.59Z" style="fill:#12a558"/><path d="M367.66,237.59a1.07,1.07,0,0,1,.37.21A1.25,1.25,0,0,0,367.66,237.59Z" style="fill:#12a558"/><path d="M367.66,237.59a1.07,1.07,0,0,1,.37.21A1.25,1.25,0,0,0,367.66,237.59Z" style="fill:#12a558"/><path d="M367.66,237.59a1.07,1.07,0,0,1,.37.21A1.25,1.25,0,0,0,367.66,237.59Z" style="fill:#12a558"/><path d="M367.66,237.59a1.07,1.07,0,0,1,.37.21A1.25,1.25,0,0,0,367.66,237.59Z" style="fill:#12a558"/><path d="M367.66,237.59a1.07,1.07,0,0,1,.37.21A1.25,1.25,0,0,0,367.66,237.59Z" style="fill:#12a558"/><path d="M367.66,237.59a1.07,1.07,0,0,1,.37.21A1.25,1.25,0,0,0,367.66,237.59Z" style="fill:#12a558"/><path d="M367.66,237.59a1.07,1.07,0,0,1,.37.21A1.25,1.25,0,0,0,367.66,237.59Z" style="fill:#12a558"/><path d="M367.66,237.59a1.07,1.07,0,0,1,.37.21A1.25,1.25,0,0,0,367.66,237.59Z" style="fill:#12a558"/><path d="M367.66,237.59a1.07,1.07,0,0,1,.37.21A1.25,1.25,0,0,0,367.66,237.59Z" style="fill:#12a558"/><path d="M367.66,237.59a1.07,1.07,0,0,1,.37.21A1.25,1.25,0,0,0,367.66,237.59Z" style="fill:#12a558"/><path d="M367.66,237.59a1.07,1.07,0,0,1,.37.21A1.25,1.25,0,0,0,367.66,237.59Z" style="fill:#12a558"/><path d="M367.66,237.59a1.07,1.07,0,0,1,.37.21A1.25,1.25,0,0,0,367.66,237.59Z" style="fill:#12a558"/><path d="M367.66,237.59a1.07,1.07,0,0,1,.37.21A1.25,1.25,0,0,0,367.66,237.59Z" style="fill:#12a558"/><path d="M367.66,237.59a1.07,1.07,0,0,1,.37.21A1.25,1.25,0,0,0,367.66,237.59Z" style="fill:#12a558"/><path d="M367.66,237.59a1.07,1.07,0,0,1,.37.21A1.25,1.25,0,0,0,367.66,237.59Z" style="fill:#12a558"/><path d="M367.66,237.59a1.07,1.07,0,0,1,.37.21A1.25,1.25,0,0,0,367.66,237.59Z" style="fill:#12a558"/><path d="M367.66,237.59a1.07,1.07,0,0,1,.37.21A1.25,1.25,0,0,0,367.66,237.59Z" style="fill:#12a558"/><path d="M367.66,237.59a1.07,1.07,0,0,1,.37.21A1.25,1.25,0,0,0,367.66,237.59Z" style="fill:#12a558"/><path d="M367.66,237.59a1.07,1.07,0,0,1,.37.21A1.25,1.25,0,0,0,367.66,237.59Z" style="fill:#12a558"/><path d="M367.66,237.59a1.07,1.07,0,0,1,.37.21A1.25,1.25,0,0,0,367.66,237.59Z" style="fill:#12a558"/><path d="M367.66,237.59a1.07,1.07,0,0,1,.37.21A1.25,1.25,0,0,0,367.66,237.59Z" style="fill:#12a558"/><path d="M367.66,237.59a1.07,1.07,0,0,1,.37.21A1.25,1.25,0,0,0,367.66,237.59Z" style="fill:#12a558"/><path d="M367.66,237.59a1.07,1.07,0,0,1,.37.21A1.25,1.25,0,0,0,367.66,237.59Z" style="fill:#12a558"/><path d="M367.66,237.59a1.07,1.07,0,0,1,.37.21A1.25,1.25,0,0,0,367.66,237.59Z" style="fill:#12a558"/><path d="M367.66,237.59a1.07,1.07,0,0,1,.37.21A1.25,1.25,0,0,0,367.66,237.59Z" style="fill:#12a558"/><path d="M367.66,237.59a1.07,1.07,0,0,1,.37.21A1.25,1.25,0,0,0,367.66,237.59Z" style="fill:#12a558"/><path d="M367.66,237.59a1.07,1.07,0,0,1,.37.21A1.25,1.25,0,0,0,367.66,237.59Z" style="fill:#12a558"/><path d="M367.66,237.59a1.07,1.07,0,0,1,.37.21A1.25,1.25,0,0,0,367.66,237.59Z" style="fill:#12a558"/><path d="M367.66,237.59a1.07,1.07,0,0,1,.37.21A1.25,1.25,0,0,0,367.66,237.59Z" style="fill:#12a558"/><path d="M367.66,237.59a1.07,1.07,0,0,1,.37.21A1.25,1.25,0,0,0,367.66,237.59Z" style="fill:#12a558"/><path d="M367.66,237.59a1.07,1.07,0,0,1,.37.21A1.25,1.25,0,0,0,367.66,237.59Z" style="fill:#12a558"/><path d="M367.66,237.59a1.07,1.07,0,0,1,.37.21A1.25,1.25,0,0,0,367.66,237.59Z" style="fill:#12a558"/><path d="M367.66,237.59a1.07,1.07,0,0,1,.37.21A1.25,1.25,0,0,0,367.66,237.59Z" style="fill:#12a558"/><path d="M367.66,237.59a1.07,1.07,0,0,1,.37.21A1.25,1.25,0,0,0,367.66,237.59Z" style="fill:#12a558"/><path d="M367.66,237.59a1.07,1.07,0,0,1,.37.21A1.25,1.25,0,0,0,367.66,237.59Z" style="fill:#12a558"/><path d="M367.66,237.59a1.07,1.07,0,0,1,.37.21A1.25,1.25,0,0,0,367.66,237.59Z" style="fill:#12a558"/><path d="M367.66,237.59a1.07,1.07,0,0,1,.37.21A1.25,1.25,0,0,0,367.66,237.59Z" style="fill:#12a558"/><path d="M367.66,237.59a1.07,1.07,0,0,1,.37.21A1.25,1.25,0,0,0,367.66,237.59Z" style="fill:#12a558"/><path d="M367.66,237.59a1.07,1.07,0,0,1,.37.21A1.25,1.25,0,0,0,367.66,237.59Z" style="fill:#12a558"/><path d="M367.66,237.59a1.07,1.07,0,0,1,.37.21A1.25,1.25,0,0,0,367.66,237.59Z" style="fill:#12a558"/><path d="M367.66,237.59a1.07,1.07,0,0,1,.37.21A1.25,1.25,0,0,0,367.66,237.59Z" style="fill:#12a558"/><path d="M367.66,237.59a1.07,1.07,0,0,1,.37.21A1.25,1.25,0,0,0,367.66,237.59Z" style="fill:#12a558"/><path d="M367.66,237.59a1.07,1.07,0,0,1,.37.21A1.25,1.25,0,0,0,367.66,237.59Z" style="fill:#12a558"/><path d="M367.66,237.59a1.07,1.07,0,0,1,.37.21A1.25,1.25,0,0,0,367.66,237.59Z" style="fill:#12a558"/><path d="M367.66,237.59a1.07,1.07,0,0,1,.37.21A1.25,1.25,0,0,0,367.66,237.59Z" style="fill:#12a558"/><path d="M367.66,237.59a1.07,1.07,0,0,1,.37.21A1.25,1.25,0,0,0,367.66,237.59Z" style="fill:#12a558"/><path d="M367.66,237.59a1.07,1.07,0,0,1,.37.21A1.25,1.25,0,0,0,367.66,237.59Z" style="fill:#12a558"/><path d="M367.66,237.59a1.07,1.07,0,0,1,.37.21A1.25,1.25,0,0,0,367.66,237.59Z" style="fill:#12a558"/><path d="M367.66,237.59a1.07,1.07,0,0,1,.37.21A1.25,1.25,0,0,0,367.66,237.59Z" style="fill:#12a558"/><path d="M367.66,237.59a1.07,1.07,0,0,1,.37.21A1.25,1.25,0,0,0,367.66,237.59Z" style="fill:#12a558"/><path d="M367.66,237.59a1.07,1.07,0,0,1,.37.21A1.25,1.25,0,0,0,367.66,237.59Z" style="fill:#12a558"/><path d="M367.66,237.59a1.07,1.07,0,0,1,.37.21A1.25,1.25,0,0,0,367.66,237.59Z" style="fill:#12a558"/><path d="M367.66,237.59a1.07,1.07,0,0,1,.37.21A1.25,1.25,0,0,0,367.66,237.59Z" style="fill:#12a558"/><path d="M413.28,383.29c-.32-1.5-1.4-1.85-2.77-1.85-7.95,0-15.84-.11-23.84-.11h-2c-.06-.38-.1-.77-.13-1.16q-.39-36.18-.7-72.36a3.31,3.31,0,0,1,.83-1.84c1.41-1.79,3.09-3.41,4.31-5.32a7.23,7.23,0,0,0,0-8.11c-1.22-1.91-2.92-3.51-4.3-5.32a4.56,4.56,0,0,1-1.09-2.4q-.25-15.29-.32-30.56a4,4,0,0,1,1-2.12c1.19-1.51,2.65-2.89,3.72-4.51a7.31,7.31,0,0,0,0-8.67c-1.18-1.75-2.72-3.13-4-4.75a3.75,3.75,0,0,1-.91-2c-.15-6.21-.14-12.42-.32-18.63a5,5,0,0,1,1.75-4.37,14.69,14.69,0,0,0,2.65-3.23,7.16,7.16,0,0,0,.12-8.36,48.52,48.52,0,0,0-3.73-4.49c-.42-.46-1-1-1-1.46V177.42c2.46-.64,2.75-1,2.27-3.64q-4.86-25.78-9.64-51.65c-.32-1.73-.77-3.5.33-5.2a2,2,0,0,0,.13-1.62c-.87-1.82-.4-3.47-.36-5.46s-.54-4-.4-6.2c.15-2.32-.55-4.69-.8-7.05-.18-1.64-.69-2.43-2.18-2.36s-1.87,1-2,2.37c-.22,2.36-.63,4.71-.89,7.07a15.31,15.31,0,0,0,.2,1.79c0,.83-.12,1.65-.12,2.47-.05,1.17-.09,2.35-.14,3.52,0,.77-.08,1.53-.14,2.29-.09,1.07-.62,2.34-.23,3.17a7,7,0,0,1,.36,4.55q-4.83,26.06-9.68,52.1c-.52,2.8-.34,3.11,2.25,3.88,0,4.09-.11,8.09,0,12.09a4.75,4.75,0,0,1-1.81,4.35,13.19,13.19,0,0,0-2.51,2.91c-2.28,3.31-2.31,6.35,0,9.65.86,1.27,2.07,2.32,3,3.57a4.18,4.18,0,0,1,.95,2.28q0,9.82-.24,19.64a4.35,4.35,0,0,1-1,2.29c-1.25,1.63-2.79,3.06-3.92,4.77a7.47,7.47,0,0,0,.17,8.82,25.54,25.54,0,0,0,3.49,4,3.36,3.36,0,0,1,1.14,2.76c-.16,10.07-.24,20.15-.43,30.22a4.23,4.23,0,0,1-1,2.26c-1.34,1.7-3,3.2-4.16,5a7.64,7.64,0,0,0,.12,9,23.79,23.79,0,0,0,3.66,4.35c1.27,1.16,1.38,2.32,1.07,4-.24-.39-.37-.57-.47-.76-6.77-13.69-20.54-20.9-35.77-18.8a4.09,4.09,0,0,1-2-.44c-4-1.77-8-3.64-12.1-5.36a3.83,3.83,0,0,1-2.25-2,47.69,47.69,0,0,0-19.53-21.31,2.1,2.1,0,0,1-1.16-2.14V245.67c0-1.87-.54-2.52-2.54-2.52h-6a8.74,8.74,0,0,1-.2-1.29c-1.71-18.7-13.71-33.37-31.71-38.55a1.67,1.67,0,0,1-1.41-1.52,10.13,10.13,0,0,0-6.18-7.63c-.38-.18-.75-.39-.86-.45.22-1.41.82-2.74.48-3.74a11.4,11.4,0,0,1-.33-4.65c.15-2.23-.58-4.59-.39-7a21.6,21.6,0,0,0-.61-4c-.14-.88-.07-1.79-.14-2.68-.12-1.63-.88-2.46-2.2-2.36a1.75,1.75,0,0,0-.56.05,1.93,1.93,0,0,0-1.44,2.32c.55,3.42-1.62,6.7-.45,10.14.11.33-.21.85-.42,1.22a3.64,3.64,0,0,0-.08,3.68c.26.37.45,1.1.26,1.37a4.24,4.24,0,0,0,0,5.43l-.23.32-1.21.56a9.89,9.89,0,0,0-5.81,7.16,2.38,2.38,0,0,1-2,2c-15.23,4.8-25.25,14.82-29.77,30.15-.86,3-1.23,6.23-1.86,9.54h-5.18c-2.79,0-3.26.46-3.26,3.18,0,4.14.08,8.28,0,12.42a2.51,2.51,0,0,1-1,1.84,49.51,49.51,0,0,0-19.85,21.73,3.73,3.73,0,0,1-1.74,1.57c-4.1,1.89-8.24,3.72-12.39,5.51a4.57,4.57,0,0,1-2.19.42c-14.23-1.61-25.43,3.39-33.49,15.3a79.51,79.51,0,0,0-4,7.31,18.69,18.69,0,0,0,0-2.8,4.47,4.47,0,0,1,1.81-4.66,11.74,11.74,0,0,0,2.22-2.5c3-4,3-7.67,0-11.67-1-1.33-2.3-2.44-3.35-3.74a3.81,3.81,0,0,1-1-2.12q-.24-15.28-.3-30.56a4.26,4.26,0,0,1,1-2.27c1-1.42,2.36-2.6,3.36-4a7.76,7.76,0,0,0,0-9.68c-1.1-1.54-2.53-2.83-3.72-4.3a3.72,3.72,0,0,1-.89-2c-.12-5.36,0-10.69-.23-16-.15-3.37.47-6,3.07-8.56,3.71-3.67,3.52-7.65.26-11.75-.76-1-1.75-1.72-2.49-2.72a4.47,4.47,0,0,1-1-2.25c-.19-3-.19-6.07-.19-9.07v-4.44c2.47-.53,2.85-1,2.4-3.48-1.1-6.33-2.35-12.65-3.52-19q-3.14-16.52-6.14-33c-.31-1.65-.67-3.35.33-5a2.12,2.12,0,0,0,.19-1.77c-.92-1.72-.39-3.38-.39-5.14,0-2.07-.59-4.17-.37-6.37s-.58-4.46-.78-6.71c-.18-1.89-.62-2.66-2.06-2.66s-2,.7-2.18,2.57c-.23,2.3-.6,4.59-.85,6.89-.06.59.18,1.2.18,1.8,0,.83-.09,1.65-.14,2.47a10.75,10.75,0,0,0-.11,3.35,3.3,3.3,0,0,1-.09,2.47,8.63,8.63,0,0,0-.28,3.35c0,1.41.59,2.87.34,4.2-3.17,17.5-6.44,35-9.69,52.45-.48,2.56-.21,3,2.2,3.56,0,4.82,0,9.46,0,14.09,0,.55-.54,1.14-.93,1.64-1.28,1.61-2.77,3.08-3.89,4.8a6.6,6.6,0,0,0,0,7.46c1.06,1.72,2.54,3.11,3.73,4.72a3.94,3.94,0,0,1,.9,2.14c0,6.21-.14,12.42-.14,18.63a5,5,0,0,1-1.68,4.07,22.66,22.66,0,0,0-3.7,4.74A6.79,6.79,0,0,0,80,247c1.1,1.8,2.66,3.3,3.92,5a4.26,4.26,0,0,1,1,2.27q0,15.29-.29,30.56a4.18,4.18,0,0,1-1,2.27c-1.33,1.69-3,3.2-4.15,5a7.54,7.54,0,0,0,0,8.84c1.14,1.75,2.71,3.23,4,4.91a3.72,3.72,0,0,1,.93,2.12q-.34,35.69-.76,71.36c0,.59-.1,1.19-.1,1.92H57.9c-2.1,0-3.15,1.07-2.94,2.83.11,1.5,1,2.11,3,2.11H410.38C412.51,386.2,413.65,385,413.28,383.29ZM361.11,175.21h0l.33-1.84C361.33,174,361.22,174.59,361.11,175.21ZM89.83,201.68a1.48,1.48,0,0,1,0-.21,1.85,1.85,0,0,1,0-.41,2,2,0,0,0,0,.35,1.75,1.75,0,0,0,0,.4A.28.28,0,0,1,89.83,201.68Zm3.67-.31,0-.16a.21.21,0,0,1,0,.1,1.38,1.38,0,0,1,0,.35A1.42,1.42,0,0,0,93.5,201.37Zm2.16-88.26a3.34,3.34,0,0,0,0-1.18A3.12,3.12,0,0,1,95.66,113.11Zm.81-12.31c0-1.22,0-2.43,0-3.64h0ZM105.86,194c1.06,1.29,2.38,2.37,3.39,3.7A7.42,7.42,0,0,1,110.5,200a8.44,8.44,0,0,0-1.22-2.24c-1-1.33-2.33-2.41-3.39-3.7a4,4,0,0,1-.66-1A4,4,0,0,0,105.86,194Zm-1-2.09c-.15-4.14-.18-8.29-.24-12.43v-2.11h0v2.18c.06,4.14.09,8.29.24,12.43,0,.13,0,.26.07.39A2.36,2.36,0,0,1,104.86,191.89Zm.14,20.57c.16,6.94.17,13.88.3,20.82a3.59,3.59,0,0,0,.31,1,2.91,2.91,0,0,1-.34-1c-.13-6.94-.14-13.88-.3-20.82a4.22,4.22,0,0,1,1.7-4,12.94,12.94,0,0,0,2.58-2.85,6.77,6.77,0,0,0,1.52-4,6.52,6.52,0,0,1-1.49,4,12.94,12.94,0,0,1-2.58,2.85C105.25,209.46,105,210.77,105,212.46Zm10.69,96.69-.47.73.45-.73a.21.21,0,0,1,.1-.08Zm3.1-1.62-.12-.08a1.18,1.18,0,0,0,.19.11Zm1.49-.18-.09.06.25-.2Zm74.14-70.88c.17-.84.37-1.68.61-2.51C194.8,234.79,194.6,235.63,194.42,236.47Zm.86-3.39c.25-.82.52-1.64.84-2.46C195.82,231.43,195.54,232.26,195.28,233.08Zm5.46,2.85v0c.13-.12.55-.28.84-.54A3.64,3.64,0,0,1,200.74,235.93Zm1-.75a1.07,1.07,0,0,1-.14.16.83.83,0,0,0,.08-.12l1.08-1.89Zm2.7-5,.53-1c.26-.49.52-1,.77-1.48C205.31,228.57,204.88,229.4,204.43,230.23Zm4.41-7.77a2.06,2.06,0,0,1-1.35,1,2.19,2.19,0,0,0,1.3-1,30.68,30.68,0,0,1,4.12-4.94A32.07,32.07,0,0,0,208.84,222.46Zm7,56.07v0h0Zm8.29-70.41c-1,.24-1.59.34-2.16.52a19.19,19.19,0,0,1,2.16-.56Zm.47,2.94a2.13,2.13,0,0,0,.76-1.38,1.41,1.41,0,0,0-.47-.86,1.61,1.61,0,0,1,.52.84A2,2,0,0,1,224.58,211.06ZM235,176c-.05-1.31,0-2.6,0-3.77Zm16.77,205.19a6.22,6.22,0,0,1,.11-1C251.85,380.49,251.78,380.8,251.74,381.16ZM249.5,206.47c1,.38,2,.81,3,1.27C251.5,207.28,250.51,206.86,249.5,206.47Zm59.24,117.3h0l.77,1.39Zm57.19-84.88a4.92,4.92,0,0,0,0,.94A2.13,2.13,0,0,1,365.93,238.89Zm0,47.31a2.91,2.91,0,0,0,0,1A1.81,1.81,0,0,1,365.93,286.2Zm.07-79a1.31,1.31,0,0,1,.75-1.08A1.5,1.5,0,0,0,366,207.21Zm2.13-1.09c.57.22.73.74.76,1.39A1.48,1.48,0,0,0,368.13,206.12Zm15.64-9.93.06.06a5.92,5.92,0,0,1-.48-.35C383.48,196,383.62,196.09,383.77,196.19Zm-.59,11.52a10.75,10.75,0,0,0,2.49-3.12,5.33,5.33,0,0,0,0-5.88,9.55,9.55,0,0,0-.58-1,8.19,8.19,0,0,0-.73-.92,6.41,6.41,0,0,1,.73.92,6.71,6.71,0,0,1,.64,1.1,5.33,5.33,0,0,1,0,5.88,10.75,10.75,0,0,1-2.49,3.12c-2.13,1.54-2.47,3.47-2.38,5.92.22,6.26.2,12.53.21,18.8a3.65,3.65,0,0,0,.75,2.43,3.5,3.5,0,0,1-.81-2.49c0-6.27,0-12.54-.21-18.8C380.71,211.18,381.05,209.25,383.18,207.71Zm-9.94-93a1.54,1.54,0,0,1,.15.35c0-.09-.08-.18-.13-.27a3.35,3.35,0,0,1-.57-1.11A3.54,3.54,0,0,0,373.24,114.67Zm-.9,5.87c.45-1.59.87-2.85,1.13-4.15a2.54,2.54,0,0,0,0-.87,2.17,2.17,0,0,1,0,1c-.26,1.3-.68,2.56-1.13,4.15l-1,.12v-.08h0a5.89,5.89,0,0,1-.11-.75s0,0,0,.08a3.33,3.33,0,0,1,.11.67Zm-1.82,3.63c.1-1,.62-1.25,1.58-1.25a1.33,1.33,0,0,1,1.17.44,1.49,1.49,0,0,0-1.17-.4c-1,0-1.48.27-1.58,1.25Zm0-7.69s0,0,0,.08c0,.29.09.57.15.86C370.61,117.11,370.56,116.79,370.51,116.48Zm1.08-15.25c-.17,1-.37,2.06-.55,3.17v0a.59.59,0,0,1,0-.13C371.22,103.25,371.41,102.18,371.59,101.23Zm-.22,4a2.12,2.12,0,0,0-.11-.21,1.76,1.76,0,0,1-.22-.54,4.58,4.58,0,0,0,.2.46A1.51,1.51,0,0,1,371.37,105.22Zm-.44,3.71a3.65,3.65,0,0,0,.72-2.69A3.62,3.62,0,0,1,371,109a1.91,1.91,0,0,0-.19,1.26A1.9,1.9,0,0,1,370.93,108.93Zm.3,2.44a3.32,3.32,0,0,0-.34-.68,1.43,1.43,0,0,1-.09-.27,1.46,1.46,0,0,0,.07.19A3.11,3.11,0,0,1,371.23,111.37Zm-.58,3.39a3.56,3.56,0,0,0,.75-2.72,3.49,3.49,0,0,1-.73,2.8,2.66,2.66,0,0,0-.2,1.39A2.48,2.48,0,0,1,370.65,114.76Zm-1.26,87.17,0,0,0,0Zm13.19,179.35h0v.05H369.12v-.06h13.45c0-.3,0-.57,0-.81Z" style="fill:#12a558"/><path d="M235,172.2V176C234.92,174.66,235,173.37,235,172.2Z" style="fill:#12a558"/><polygon points="96.47 97.16 96.33 97.16 96.33 97.15 96.47 97.16" style="fill:#12a558"/><path d="M96.47,97.16v3.64C96.45,99.58,96.47,98.37,96.47,97.16Z" style="fill:#12a558"/><path d="M371.23,111.37a3.32,3.32,0,0,0-.34-.68,1.43,1.43,0,0,1-.09-.27,1.46,1.46,0,0,0,.07.19A3.11,3.11,0,0,1,371.23,111.37Z" style="fill:#12a558"/><path d="M371.37,105.22a2.12,2.12,0,0,0-.11-.21,1.76,1.76,0,0,1-.22-.54,4.58,4.58,0,0,0,.2.46A1.51,1.51,0,0,1,371.37,105.22Z" style="fill:#12a558"/><path d="M373.49,116.47c-.26,1.3-.68,2.56-1.13,4.15l-1,.12v-.08l1-.12c.45-1.59.87-2.85,1.13-4.15a2.54,2.54,0,0,0,0-.87A2.17,2.17,0,0,1,373.49,116.47Z" style="fill:#12a558"/><path d="M89.86,201.81a.28.28,0,0,1,0-.13,1.48,1.48,0,0,1,0-.21,1.85,1.85,0,0,1,0-.41,2,2,0,0,0,0,.35A1.75,1.75,0,0,0,89.86,201.81Z" style="fill:#12a558"/><path d="M366,287.23a1.81,1.81,0,0,1,0-1A2.91,2.91,0,0,0,366,287.23Z" style="fill:#12a558"/><path d="M368,237.8a1.07,1.07,0,0,0-.37-.21A1.25,1.25,0,0,1,368,237.8Z" style="fill:#12a558"/><path d="M368.84,287.3a4.48,4.48,0,0,1-.45.57C368.55,287.68,368.71,287.48,368.84,287.3Z" style="fill:#12a558"/><path d="M366.75,206.13a1.5,1.5,0,0,0-.75,1.08A1.31,1.31,0,0,1,366.75,206.13Z" style="fill:#12a558"/><path d="M367.7,228.49a1.48,1.48,0,0,0,.45-.12A1.41,1.41,0,0,1,367.7,228.49Z" style="fill:#12a558"/><path d="M368.89,207.51a1.48,1.48,0,0,0-.76-1.39C368.7,206.34,368.86,206.86,368.89,207.51Z" style="fill:#12a558"/><path d="M212.91,217.54a32.07,32.07,0,0,0-4.07,4.92,2.06,2.06,0,0,1-1.35,1,2.19,2.19,0,0,0,1.3-1A30.68,30.68,0,0,1,212.91,217.54Z" style="fill:#12a558"/><path d="M224.11,208.08v0c-1,.24-1.59.34-2.16.52A19.19,19.19,0,0,1,224.11,208.08Z" style="fill:#12a558"/><path d="M225.39,209.66a2,2,0,0,1-.81,1.4,2.13,2.13,0,0,0,.76-1.38,1.41,1.41,0,0,0-.47-.86A1.61,1.61,0,0,1,225.39,209.66Z" style="fill:#12a558"/><path d="M202.75,233.33l-1,1.85a1.07,1.07,0,0,1-.14.16.83.83,0,0,0,.08-.12Z" style="fill:#12a558"/><path d="M118.86,307.56l-.07,0-.12-.08A1.18,1.18,0,0,0,118.86,307.56Z" style="fill:#12a558"/><path d="M120.44,307.21l-.16.14-.09.06Z" style="fill:#12a558"/><path d="M305.41,309.18A2.51,2.51,0,0,1,306,309,2.51,2.51,0,0,0,305.41,309.18Z" style="fill:#12a558"/><path d="M306.75,309a2.7,2.7,0,0,0-.56,0A2.77,2.77,0,0,1,306.75,309Z" style="fill:#12a558"/></g><rect x="4.5" y="4.5" width="459.28" height="571.45" rx="8.21" style="fill:none;stroke:#12a558;stroke-miterlimit:10;stroke-width:9px"/><path d="M200.47,480.13a9,9,0,0,1-3.11,7.16,10.57,10.57,0,0,1-7.09,2.36,9.36,9.36,0,0,1-7.83-3.56,10.25,10.25,0,0,1-2.17-6.52,9.56,9.56,0,0,1,1.38-5.17l4.5-.94a10.42,10.42,0,0,0-1.5,5.36,6.57,6.57,0,0,0,1.61,4.61,5.21,5.21,0,0,0,4,1.69,5.78,5.78,0,0,0,4-1.31,4.74,4.74,0,0,0,1.45-3.68V468.36l4.72-2.47ZM190.09,466.3a2.43,2.43,0,0,1-1.8-.67,2.48,2.48,0,0,1-.68-1.84,2.39,2.39,0,0,1,.68-1.76,2.44,2.44,0,0,1,1.8-.68,2.4,2.4,0,0,1,1.78.66,2.43,2.43,0,0,1,.65,1.78C192.52,465.47,191.71,466.3,190.09,466.3Z" style="fill:#12a558"/><path d="M204.22,482.53l2.36-4.53h5.92c1.27,0,1.91-.74,1.91-2.22a7,7,0,0,0-4-6.37l2.32-4q6.38,3.75,6.37,10.42t-5.77,6.67Zm8.62-20.43a2.43,2.43,0,0,1-1.8-.67,2.48,2.48,0,0,1-.68-1.84,2.39,2.39,0,0,1,.68-1.76,2.43,2.43,0,0,1,4.23,1.76C215.27,461.27,214.46,462.1,212.84,462.1Z" style="fill:#12a558"/><path d="M242.89,478v4.53h-4.61a7.11,7.11,0,0,1-3,5.4,8.64,8.64,0,0,1-5.25,1.65,9.23,9.23,0,0,1-4.61-1.28v-4.08a8.12,8.12,0,0,0,4,1.16,4.73,4.73,0,0,0,2.79-.86,2.86,2.86,0,0,0,1.33-2.06c-.2,0-.51,0-.94-.08l-1-.11a8.42,8.42,0,0,1-6-3,8.29,8.29,0,0,1-1.76-5.36,9.15,9.15,0,0,1,2.25-6.52,6.87,6.87,0,0,1,5.24-2.1,6.58,6.58,0,0,1,5.21,2.14,7,7,0,0,1,1.61,4.8V478Zm-8.09-18.78-1.2,2.17h-7l1.2-2.17H229a3.2,3.2,0,0,1-.41-1.54,2.78,2.78,0,0,1,.88-2.06,2.94,2.94,0,0,1,2.12-.86,3.26,3.26,0,0,1,2.1.79v2.17a2.73,2.73,0,0,0-1.8-.79c-.83,0-1.24.38-1.24,1.13a1.85,1.85,0,0,0,.49,1.16Zm-1.2,12.89c0-1.65-.71-2.47-2.14-2.47q-2.85,0-2.85,4.08,0,3.64,3.3,4a12,12,0,0,0,1.69.19Z" style="fill:#12a558"/><path d="M264.48,478h3.34v4.53H264a6.8,6.8,0,0,1-4.42-1.39,7,7,0,0,1-5.32,2.14,6.82,6.82,0,0,1-5.32-2.14,7.07,7.07,0,0,1-4.46,1.39h-3.83V478H244a2.74,2.74,0,0,0,2-.62,2.94,2.94,0,0,0,.6-2.08v-1.09a9.55,9.55,0,0,1,2.29-6.82,7.61,7.61,0,0,1,11.17.64,10.28,10.28,0,0,1,1.72,6.18v1.09a2.89,2.89,0,0,0,.62,2.08A2.81,2.81,0,0,0,264.48,478Zm-10.23.75q2.85,0,2.85-4.65c0-3-1-4.46-2.85-4.46s-2.89,1.48-2.89,4.46S252.32,478.75,254.25,478.75Z" style="fill:#12a558"/><path d="M265.57,482.53V478h2.36a3.31,3.31,0,0,0,2.45-.75,3.58,3.58,0,0,0,.73-2.55V460.87l4.69-2.51v16.37a7.77,7.77,0,0,1-2.21,5.81,7.36,7.36,0,0,1-5.4,2Z" style="fill:#12a558"/><path d="M282.55,482.53V460.87l4.72-2.51v24.17Z" style="fill:#12a558"/></g></g></svg>