<svg xmlns="http://www.w3.org/2000/svg" viewBox="0 0 119.36 119.14"><title>close</title><g id="Layer_2" data-name="Layer 2"><g id="Layer_1-2" data-name="Layer 1"><path d="M60.66,75.26C53.81,82,48.24,87.48,42.72,93,35.3,100.4,28,108,20.51,115.28c-5.15,5-12.48,5.11-17,.5-4.84-4.91-4.68-12,.69-17.38Q21,81.6,37.91,65a75.06,75.06,0,0,1,6-4.9c-6-6-11.22-11.35-16.48-16.6C19.81,36,12.18,28.54,4.66,21-1.06,15.23-1.52,8.12,3.34,3.24,8-1.38,15.93-1.08,21.26,4.24,32.46,15.38,43.54,26.68,54.62,38c1.51,1.54,2.75,3.34,4.61,5.64,5.9-5.9,11.05-11,16.16-16.17C83,19.74,90.54,12,98.21,4.33c5.27-5.25,13.36-5.71,17.9-1.19,4.72,4.69,4.3,12.3-1.21,17.81C103.48,32.38,92,43.71,80.51,55.09c-1.28,1.27-2.5,2.62-4.34,4.54l16,15.83c7.59,7.48,15.24,14.9,22.75,22.46,5.51,5.54,5.89,13.06,1.14,17.8-4.89,4.89-12.12,4.53-17.74-1.07Q81,97.37,63.82,79.92C62.66,78.75,61.93,77.16,60.66,75.26Z"/></g></g></svg>