<svg xmlns="http://www.w3.org/2000/svg" viewBox="0 0 167.61 143.55"><title>menu</title><g id="Layer_2" data-name="Layer 2"><g id="Layer_1-2" data-name="Layer 1"><path d="M83.88,120.21h70c8.72,0,13.76,4.28,13.73,11.64s-5.26,11.7-13.82,11.7H13.34c-5,0-9.23-1.49-11.71-6.1a11.28,11.28,0,0,1,.52-12.31c2.55-3.84,6.31-5,10.79-5C36.56,120.25,60.22,120.21,83.88,120.21Z"/><path d="M83.38,23.58c-23.49,0-47,.06-70.47,0-9.62,0-15.72-8.47-11.6-16.45C2.72,4.39,6.05,2.34,8.94.78,10.82-.22,13.49,0,15.8,0H152.25c6,0,11.84.66,14.4,7.41,3.21,8.44-2.23,16.05-11.79,16.15-15,.16-30,0-45,0Z"/><path d="M84.12,59.92h69.45c8.22,0,12.27,3,13.66,9.61a10.93,10.93,0,0,1-7.94,13.25A11.61,11.61,0,0,1,158,83a46.61,46.61,0,0,1-7.45.62H16.62a40.45,40.45,0,0,1-7-.62A11,11,0,0,1,.1,72.46,11.19,11.19,0,0,1,8.79,60.64,28.6,28.6,0,0,1,15.7,60Q49.89,59.88,84.12,59.92Z"/></g></g></svg>