<svg xmlns="http://www.w3.org/2000/svg" viewBox="0 0 131.76 191.21"><title>mic</title><g id="Layer_2" data-name="Layer 2"><g id="Layer_1-2" data-name="Layer 1"><path d="M101.31,65.73c0,11.32.94,22.75-.22,34-2,18.86-17,31.77-35.15,31.63C47,131.15,31.75,118.1,30.85,98.79c-1.06-22.58-1-45.31.18-67.89C32,13.26,46.93.38,65.09,0c17.09-.34,32.34,10.55,35.27,27.86,1.62,9.58.85,19.56,1.12,29.36.08,2.83,0,5.67,0,8.5Z"/><path d="M56.68,173.85c.26-1,.32-1.17.34-1.33.88-11,.88-11-9.4-14C19.41,150.33.84,125.76.1,95.75,0,91.09,0,86.41.1,81.75.33,76,4,72,8.79,72c5.13-.07,8.31,3.92,8.69,10.17.56,9.26.18,18.83,2.43,27.7,5.57,22,27.87,36.54,50.21,34,24.89-2.82,42.68-21,43.81-44.78.28-5.82-.07-11.67.23-17.49.42-7.83,7-12.06,13-8.11a10.48,10.48,0,0,1,4.14,6.85c2.19,26-3,49.42-24.61,66.71a58.49,58.49,0,0,1-25.93,12.25c-5.06.94-7.37,2.87-6.5,8.11a63.25,63.25,0,0,1,.36,6.46c5.66,0,11-.32,16.24.13,2.81.24,6.52,1,8,3,1.68,2.22,2.16,6.13,1.64,9-.69,3.89-4.33,5.21-8.13,5.22-17.66,0-35.32.08-53,0-5.38,0-8.67-3.34-8.86-8.22s2.94-8.46,8.17-9c3.8-.36,7.66-.13,11.49-.16C52.27,173.84,54.4,173.85,56.68,173.85Z"/></g></g></svg>