<svg xmlns="http://www.w3.org/2000/svg" viewBox="0 0 191.18 191.16"><title>send</title><g id="Layer_2" data-name="Layer 2"><g id="Layer_1-2" data-name="Layer 1"><path d="M72.06,164.64c-3.85-15.79,3.88-27.21,13.37-38.73,16.31-19.79,31.68-40.35,47.43-60.6.31-.39.77-.75.88-1.2.45-1.86,1.75-4.48,1-5.48-2.08-2.73-4.37-.77-6.3,1q-7.8,7-15.59,14c-19.87,18-39.79,36-59.54,54.1-5.15,4.71-10.26,6-16.8,3-9.08-4.14-18.42-7.71-27.67-11.49-5-2-8.64-5.45-8.83-11s3-9.18,7.75-11.88Q89.51,49.63,171.18,2.82c4.94-2.83,9.81-4.3,14.91-.64s5.65,8.73,4.71,14.66c-5.58,35.33-10.92,70.7-16.34,106.05-2.35,15.29-4.63,30.59-7.09,45.86-1.38,8.65-8.86,12.45-17.27,9-14-5.74-28.07-11.37-42-17.31-3.73-1.6-5.51-1-7.31,2.66-3.67,7.46-7.89,14.66-11.81,22-2.23,4.19-5.15,7-10.34,5.77S72,186,72,181.11C72.12,175.64,72.06,170.11,72.06,164.64Z"/></g></g></svg>