<svg xmlns="http://www.w3.org/2000/svg" viewBox="0 0 239.46 191.26"><title>speaker-off</title><g id="Layer_2" data-name="Layer 2"><g id="Layer_1-2" data-name="Layer 1"><path d="M162.28,117.91c2.95-4.14,5.51-7.86,8.19-11.47,5.44-7.31,4.51-16.44-1.79-23.8-2.08-2.43-3.84-6-3.87-9.1a7.52,7.52,0,0,1,11.5-6.35,28.53,28.53,0,0,1,7.77,6.87c10.58,13.31,9.2,34.72-2.94,46.65-2.09,2-4.75,3.5-7.89,5.76,4.81,3.79,9.44,7.68,14.39,11.1.8.56,3.39-.58,4.58-1.61,22.15-19,23.84-56,3.6-77.16-1.6-1.69-3.32-3.27-5-4.87-4.49-4.24-5.1-8.82-1.66-12.68,3.26-3.67,8.77-3.87,13-.21,12,10.47,20.49,23.24,23.54,39,4.89,25.28-1.31,47.49-19.34,66.16-.7.72-1.38,1.44-2.05,2.19q-.44.66-.81,1.35c1.24,1.1,2.5,2.33,3.89,3.41,9,7.11,18.1,14.16,27.14,21.26,5.19,4.08,6.34,9.07,3.17,13.39s-8.3,4.69-13.66.52q-38.65-30-77.17-60.29Q87,81.21,27.32,34.31q-10.82-8.48-21.6-17C-.35,12.51-1.57,8,2,3.37s8.53-4.53,14.83.42c19.77,15.55,39.65,31,59.27,46.68,3.61,2.9,5.62,2.34,8.7-.48,12.31-11.2,24.89-22.12,37.26-33.3,4.26-3.83,8.72-6.18,14.43-3.59s7.06,7.6,7.07,13.23c0,23.83.12,47.65-.08,71.48,0,4.11,1.14,6.79,4.53,9.12C153.12,110.52,157.94,114.56,162.28,117.91Z"/><path d="M23.66,95.18c.36-5.46.56-11,1.18-16.38a19.75,19.75,0,0,1,2.24-6.54c4.41-8.5,7.18-9,14.49-3.27q49.14,38.88,98.35,77.64c2.66,2.09,3.81,4.29,3.65,7.58-.2,4.32.08,8.67-.16,13-.29,5.2-2.58,9.22-7.65,11.29s-9,.27-12.78-3c-14.9-13.29-29.9-26.48-44.68-39.91-3.3-3-6.57-4.55-11.1-4.3-6.14.33-12.31.19-18.47.05C34.28,131,24.41,121.17,24,106.75c-.1-3.83,0-7.66,0-11.49Z"/></g></g></svg>