<svg xmlns="http://www.w3.org/2000/svg" viewBox="0 0 119.37 143.67"><title>stop-sound</title><g id="Layer_2" data-name="Layer 2"><g id="Layer_1-2" data-name="Layer 1"><path d="M47.55,71.93v50c0,14.92-6.82,21.7-21.69,21.71-2.33,0-4.67.06-7,0-11-.29-18.7-7.56-18.75-18.57Q-.11,71.82.11,18.58C.11,7.58,7.29.84,19,.1c2.65-.16,5.33-.1,8,0C40.71.46,47.41,7.1,47.52,21,47.65,37.93,47.55,54.93,47.55,71.93Z"/><path d="M119.35,72.38v51.48c0,12.58-7.22,19.78-19.93,19.75-4.47,0-9.06.14-13.39-.79-8.62-1.86-13.67-7.95-13.7-16.72q-.24-54.22,0-108.46C72.33,8.5,78,2.07,87,.81A63.06,63.06,0,0,1,102.89.54c11.1,1.3,16.43,7.71,16.45,18.86Q119.39,45.88,119.35,72.38Z"/></g></g></svg>